<?xml version="1.0" encoding="UTF-8"?>
<!-- Do not edit this file with editors other than draw.io -->
<!DOCTYPE svg PUBLIC "-//W3C//DTD SVG 1.1//EN" "http://www.w3.org/Graphics/SVG/1.1/DTD/svg11.dtd">
<svg xmlns="http://www.w3.org/2000/svg" style="background: transparent; background-color: transparent; color-scheme: light dark;" xmlns:xlink="http://www.w3.org/1999/xlink" version="1.1" width="321px" height="318px" viewBox="0 0 321 318" content="&lt;mxfile host=&quot;app.diagrams.net&quot; agent=&quot;Mozilla/5.0 (Windows NT 10.0; Win64; x64) AppleWebKit/537.36 (KHTML, like Gecko) Chrome/143.0.0.0 Safari/537.36&quot; version=&quot;29.2.7&quot;&gt;&#10;  &lt;diagram id=&quot;6a731a19-8d31-9384-78a2-239565b7b9f0&quot; name=&quot;Page-1&quot;&gt;&#10;    &lt;mxGraphModel dx=&quot;1426&quot; dy=&quot;743&quot; grid=&quot;1&quot; gridSize=&quot;10&quot; guides=&quot;1&quot; tooltips=&quot;1&quot; connect=&quot;1&quot; arrows=&quot;1&quot; fold=&quot;1&quot; page=&quot;1&quot; pageScale=&quot;1&quot; pageWidth=&quot;827&quot; pageHeight=&quot;1169&quot; background=&quot;none&quot; math=&quot;0&quot; shadow=&quot;0&quot;&gt;&#10;      &lt;root&gt;&#10;        &lt;mxCell id=&quot;0&quot; /&gt;&#10;        &lt;mxCell id=&quot;1&quot; parent=&quot;0&quot; /&gt;&#10;        &lt;mxCell id=&quot;B-phmdFgykaJdFXzNsh_-51&quot; parent=&quot;1&quot; style=&quot;sketch=0;html=1;pointerEvents=1;dashed=0;fillColor=#036897;strokeColor=#ffffff;strokeWidth=2;verticalLabelPosition=bottom;verticalAlign=top;align=center;outlineConnect=0;shape=mxgraph.cisco.computers_and_peripherals.laptop;&quot; value=&quot;C1&quot; vertex=&quot;1&quot;&gt;&#10;          &lt;mxGeometry height=&quot;40&quot; width=&quot;60&quot; x=&quot;325&quot; y=&quot;760&quot; as=&quot;geometry&quot; /&gt;&#10;        &lt;/mxCell&gt;&#10;        &lt;mxCell id=&quot;B-phmdFgykaJdFXzNsh_-79&quot; parent=&quot;1&quot; style=&quot;sketch=0;points=[[0.015,0.015,0],[0.985,0.015,0],[0.985,0.985,0],[0.015,0.985,0],[0.25,0,0],[0.5,0,0],[0.75,0,0],[1,0.25,0],[1,0.5,0],[1,0.75,0],[0.75,1,0],[0.5,1,0],[0.25,1,0],[0,0.75,0],[0,0.5,0],[0,0.25,0]];verticalLabelPosition=top;html=1;verticalAlign=bottom;aspect=fixed;align=center;pointerEvents=1;shape=mxgraph.cisco19.rect;prIcon=l2_switch;fillColor=#FAFAFA;strokeColor=#005073;labelPosition=center;&quot; value=&quot;S1&quot; vertex=&quot;1&quot;&gt;&#10;          &lt;mxGeometry height=&quot;50&quot; width=&quot;50&quot; x=&quot;330&quot; y=&quot;640&quot; as=&quot;geometry&quot; /&gt;&#10;        &lt;/mxCell&gt;&#10;        &lt;mxCell id=&quot;B-phmdFgykaJdFXzNsh_-80&quot; parent=&quot;1&quot; style=&quot;sketch=0;points=[[0.5,0,0],[1,0.5,0],[0.5,1,0],[0,0.5,0],[0.145,0.145,0],[0.8555,0.145,0],[0.855,0.8555,0],[0.145,0.855,0]];verticalLabelPosition=top;html=1;verticalAlign=bottom;aspect=fixed;align=center;pointerEvents=1;shape=mxgraph.cisco19.rect;prIcon=router;fillColor=#FAFAFA;strokeColor=#005073;labelPosition=center;&quot; value=&quot;R1&quot; vertex=&quot;1&quot;&gt;&#10;          &lt;mxGeometry height=&quot;50&quot; width=&quot;50&quot; x=&quot;200&quot; y=&quot;520&quot; as=&quot;geometry&quot; /&gt;&#10;        &lt;/mxCell&gt;&#10;        &lt;mxCell id=&quot;B-phmdFgykaJdFXzNsh_-81&quot; parent=&quot;1&quot; style=&quot;sketch=0;points=[[0.5,0,0],[1,0.5,0],[0.5,1,0],[0,0.5,0],[0.145,0.145,0],[0.8555,0.145,0],[0.855,0.8555,0],[0.145,0.855,0]];verticalLabelPosition=top;html=1;verticalAlign=bottom;aspect=fixed;align=center;pointerEvents=1;shape=mxgraph.cisco19.rect;prIcon=router;fillColor=#FAFAFA;strokeColor=#005073;labelPosition=center;&quot; value=&quot;R2&quot; vertex=&quot;1&quot;&gt;&#10;          &lt;mxGeometry height=&quot;50&quot; width=&quot;50&quot; x=&quot;470&quot; y=&quot;520&quot; as=&quot;geometry&quot; /&gt;&#10;        &lt;/mxCell&gt;&#10;        &lt;mxCell id=&quot;B-phmdFgykaJdFXzNsh_-82&quot; edge=&quot;1&quot; parent=&quot;1&quot; source=&quot;B-phmdFgykaJdFXzNsh_-51&quot; style=&quot;rounded=0;orthogonalLoop=1;jettySize=auto;html=1;exitX=0.5;exitY=0;exitDx=0;exitDy=0;exitPerimeter=0;entryX=0.5;entryY=1;entryDx=0;entryDy=0;entryPerimeter=0;endArrow=none;endFill=0;&quot; target=&quot;B-phmdFgykaJdFXzNsh_-79&quot;&gt;&#10;          &lt;mxGeometry relative=&quot;1&quot; as=&quot;geometry&quot; /&gt;&#10;        &lt;/mxCell&gt;&#10;        &lt;mxCell id=&quot;B-phmdFgykaJdFXzNsh_-83&quot; edge=&quot;1&quot; parent=&quot;1&quot; source=&quot;B-phmdFgykaJdFXzNsh_-81&quot; style=&quot;rounded=0;orthogonalLoop=1;jettySize=auto;html=1;exitX=0.145;exitY=0.855;exitDx=0;exitDy=0;exitPerimeter=0;entryX=0.985;entryY=0.015;entryDx=0;entryDy=0;entryPerimeter=0;endArrow=none;endFill=0;&quot; target=&quot;B-phmdFgykaJdFXzNsh_-79&quot;&gt;&#10;          &lt;mxGeometry relative=&quot;1&quot; as=&quot;geometry&quot; /&gt;&#10;        &lt;/mxCell&gt;&#10;        &lt;mxCell id=&quot;B-phmdFgykaJdFXzNsh_-87&quot; connectable=&quot;0&quot; parent=&quot;B-phmdFgykaJdFXzNsh_-83&quot; style=&quot;edgeLabel;html=1;align=center;verticalAlign=middle;resizable=0;points=[];&quot; value=&quot;G0/0&quot; vertex=&quot;1&quot;&gt;&#10;          &lt;mxGeometry relative=&quot;1&quot; x=&quot;-0.2477&quot; y=&quot;1&quot; as=&quot;geometry&quot;&gt;&#10;            &lt;mxPoint x=&quot;24&quot; y=&quot;-19&quot; as=&quot;offset&quot; /&gt;&#10;          &lt;/mxGeometry&gt;&#10;        &lt;/mxCell&gt;&#10;        &lt;mxCell id=&quot;B-phmdFgykaJdFXzNsh_-89&quot; connectable=&quot;0&quot; parent=&quot;B-phmdFgykaJdFXzNsh_-83&quot; style=&quot;edgeLabel;html=1;align=center;verticalAlign=middle;resizable=0;points=[];&quot; value=&quot;G0/1&quot; vertex=&quot;1&quot;&gt;&#10;          &lt;mxGeometry relative=&quot;1&quot; x=&quot;0.5616&quot; y=&quot;2&quot; as=&quot;geometry&quot;&gt;&#10;            &lt;mxPoint x=&quot;-10&quot; y=&quot;6&quot; as=&quot;offset&quot; /&gt;&#10;          &lt;/mxGeometry&gt;&#10;        &lt;/mxCell&gt;&#10;        &lt;mxCell id=&quot;B-phmdFgykaJdFXzNsh_-85&quot; edge=&quot;1&quot; parent=&quot;1&quot; source=&quot;B-phmdFgykaJdFXzNsh_-80&quot; style=&quot;rounded=0;orthogonalLoop=1;jettySize=auto;html=1;exitX=0.855;exitY=0.8555;exitDx=0;exitDy=0;exitPerimeter=0;entryX=0.015;entryY=0.015;entryDx=0;entryDy=0;entryPerimeter=0;endArrow=none;endFill=0;&quot; target=&quot;B-phmdFgykaJdFXzNsh_-79&quot;&gt;&#10;          &lt;mxGeometry relative=&quot;1&quot; as=&quot;geometry&quot; /&gt;&#10;        &lt;/mxCell&gt;&#10;        &lt;mxCell id=&quot;B-phmdFgykaJdFXzNsh_-86&quot; connectable=&quot;0&quot; parent=&quot;B-phmdFgykaJdFXzNsh_-85&quot; style=&quot;edgeLabel;html=1;align=center;verticalAlign=middle;resizable=0;points=[];&quot; value=&quot;G0/0&quot; vertex=&quot;1&quot;&gt;&#10;          &lt;mxGeometry relative=&quot;1&quot; x=&quot;-0.5476&quot; as=&quot;geometry&quot;&gt;&#10;            &lt;mxPoint x=&quot;-10&quot; y=&quot;-8&quot; as=&quot;offset&quot; /&gt;&#10;          &lt;/mxGeometry&gt;&#10;        &lt;/mxCell&gt;&#10;        &lt;mxCell id=&quot;B-phmdFgykaJdFXzNsh_-88&quot; connectable=&quot;0&quot; parent=&quot;B-phmdFgykaJdFXzNsh_-85&quot; style=&quot;edgeLabel;html=1;align=center;verticalAlign=middle;resizable=0;points=[];&quot; value=&quot;G0/0&quot; vertex=&quot;1&quot;&gt;&#10;          &lt;mxGeometry relative=&quot;1&quot; x=&quot;0.5794&quot; y=&quot;-3&quot; as=&quot;geometry&quot;&gt;&#10;            &lt;mxPoint x=&quot;11&quot; y=&quot;5&quot; as=&quot;offset&quot; /&gt;&#10;          &lt;/mxGeometry&gt;&#10;        &lt;/mxCell&gt;&#10;      &lt;/root&gt;&#10;    &lt;/mxGraphModel&gt;&#10;  &lt;/diagram&gt;&#10;&lt;/mxfile&gt;&#10;"><defs/><g><g data-cell-id="0"><g data-cell-id="1"><g data-cell-id="B-phmdFgykaJdFXzNsh_-51"><g><rect x="125" y="257" width="60" height="40" fill="none" stroke="none" pointer-events="all"/><path d="M 183.59 257 L 185 258.74 L 181.11 280.3 L 179.36 279.26 Z M 141.24 279.26 L 142.65 280.3 L 181.11 280.3 L 179.36 279.26 Z" fill="#036897" stroke="#ffffff" stroke-width="2" stroke-linejoin="round" stroke-miterlimit="10" pointer-events="all" style="fill: light-dark(rgb(3, 104, 151), rgb(92, 179, 220)); stroke: light-dark(rgb(255, 255, 255), rgb(18, 18, 18));"/><path d="M 179.71 281 C 179.71 284.48 179.71 284.48 179.71 284.48 C 178.65 285.52 178.65 285.52 178.65 285.52 C 178.65 285.52 176.18 286.22 176.88 287.61 C 166.29 297 166.29 297 166.29 297 C 166.29 292.83 166.29 292.83 166.29 292.83 Z" fill="#036897" stroke="#ffffff" stroke-width="2" stroke-linejoin="round" stroke-miterlimit="10" pointer-events="all" style="fill: light-dark(rgb(3, 104, 151), rgb(92, 179, 220)); stroke: light-dark(rgb(255, 255, 255), rgb(18, 18, 18));"/><path d="M 125 292.83 L 125 297 L 166.29 297 L 166.29 292.83 Z" fill="#036897" stroke="#ffffff" stroke-width="2" stroke-linejoin="round" stroke-miterlimit="10" pointer-events="all" style="fill: light-dark(rgb(3, 104, 151), rgb(92, 179, 220)); stroke: light-dark(rgb(255, 255, 255), rgb(18, 18, 18));"/><path d="M 141.59 281 L 179.71 281 L 166.29 292.83 L 125 292.83 Z M 179.36 279.26 L 183.59 257 L 146.18 257 L 141.24 279.26 Z M 176.18 276.48 L 179.36 259.79 L 149 259.79 L 145.48 276.48 Z" fill="#036897" stroke="#ffffff" stroke-width="2" stroke-linejoin="round" stroke-miterlimit="10" pointer-events="all" style="fill: light-dark(rgb(3, 104, 151), rgb(92, 179, 220)); stroke: light-dark(rgb(255, 255, 255), rgb(18, 18, 18));"/><path d="M 142.3 281.35 L 132.77 289.01 M 145.48 281.35 L 135.95 289.01 M 148.65 281.35 L 139.12 289.01 M 151.83 281.35 L 141.94 289.01 M 154.65 281.35 L 145.12 289.01 M 157.82 281.35 L 148.29 289.01 M 161 281.35 L 151.47 289.01 M 164.17 281.35 L 154.3 289.01 M 167 281.35 L 157.47 289.01 M 170.18 281.35 L 160.65 289.01 M 173.35 281.35 L 163.82 289.01 M 176.53 281.35 L 166.65 289.01 M 133.83 288.31 L 168.06 288.31 M 136.3 286.56 L 169.83 286.56 M 138.41 284.83 L 172.29 284.83 M 140.53 283.09 L 174.41 283.09" fill="none" stroke="#ffffff" stroke-width="2" stroke-linejoin="round" stroke-miterlimit="10" pointer-events="all" style="stroke: light-dark(rgb(255, 255, 255), rgb(18, 18, 18));"/></g><g><g><switch><foreignObject style="overflow: visible; text-align: left;" pointer-events="none" width="100%" height="100%" requiredFeatures="http://www.w3.org/TR/SVG11/feature#Extensibility"><div xmlns="http://www.w3.org/1999/xhtml" style="display: flex; align-items: unsafe flex-start; justify-content: unsafe center; width: 1px; height: 1px; padding-top: 304px; margin-left: 155px;"><div style="box-sizing: border-box; font-size: 0; text-align: center; color: #000000; "><div style="display: inline-block; font-size: 12px; font-family: Helvetica; color: light-dark(#000000, #ffffff); line-height: 1.2; pointer-events: all; white-space: nowrap; ">C1</div></div></div></foreignObject><text x="155" y="316" fill="light-dark(#000000, #ffffff)" font-family="Helvetica" font-size="12px" text-anchor="middle">C1</text></switch></g></g></g><g data-cell-id="B-phmdFgykaJdFXzNsh_-79"><g transform="translate(0.5,0.5)"><rect x="130" y="137" width="50" height="50" fill="none" stroke="none" pointer-events="all"/><path d="M 133.07 137 C 131.38 137 130 138.37 130 140.05 L 130 183.95 C 130 185.63 131.38 187 133.07 187 L 176.93 187 C 178.62 187 180 185.63 180 183.95 L 180 140.05 C 180 138.37 178.62 137 176.93 137 Z" fill="#fafafa" stroke="none" pointer-events="all" style="fill: light-dark(rgb(250, 250, 250), rgb(22, 22, 22));"/><rect x="130" y="137" width="50" height="50" fill="none" stroke="none" pointer-events="all"/><path d="M 153.38 177.52 L 153.38 173.53 L 142.78 173.53 L 142.78 170.39 L 133.75 175.71 L 142.78 180.96 L 142.78 177.52 Z M 158.32 158.46 L 158.32 154.48 L 147.73 154.48 L 147.73 151.33 L 138.7 156.66 L 147.73 161.9 L 147.73 158.46 Z M 152.38 168.06 L 152.38 164.08 L 162.98 164.08 L 162.98 160.93 L 172 166.26 L 162.98 171.51 L 162.98 168.06 Z M 156.96 149.32 L 156.96 145.34 L 167.55 145.34 L 167.55 142.2 L 176.58 147.52 L 167.55 152.77 L 167.55 149.32 Z M 133.07 137 C 131.38 137 130 138.37 130 140.05 L 130 183.95 C 130 185.63 131.38 187 133.07 187 L 176.93 187 C 178.62 187 180 185.63 180 183.95 L 180 140.05 C 180 138.37 178.62 137 176.93 137 Z M 133.07 138.38 L 176.93 138.38 C 177.88 138.38 178.62 139.11 178.62 140.05 L 178.62 183.95 C 178.62 184.89 177.88 185.62 176.93 185.62 L 133.07 185.62 C 132.12 185.62 131.38 184.89 131.38 183.95 L 131.38 140.05 C 131.38 139.11 132.12 138.38 133.07 138.38 Z" fill="#005073" stroke="none" pointer-events="all" style="fill: light-dark(rgb(0, 80, 115), rgb(124, 193, 223));"/></g><g><g><switch><foreignObject style="overflow: visible; text-align: left;" pointer-events="none" width="100%" height="100%" requiredFeatures="http://www.w3.org/TR/SVG11/feature#Extensibility"><div xmlns="http://www.w3.org/1999/xhtml" style="display: flex; align-items: unsafe flex-end; justify-content: unsafe center; width: 1px; height: 1px; padding-top: 134px; margin-left: 155px;"><div style="box-sizing: border-box; font-size: 0; text-align: center; color: #000000; "><div style="display: inline-block; font-size: 12px; font-family: Helvetica; color: light-dark(#000000, #ffffff); line-height: 1.2; pointer-events: all; white-space: nowrap; ">S1</div></div></div></foreignObject><text x="155" y="134" fill="light-dark(#000000, #ffffff)" font-family="Helvetica" font-size="12px" text-anchor="middle">S1</text></switch></g></g></g><g data-cell-id="B-phmdFgykaJdFXzNsh_-80"><g transform="translate(0.5,0.5)"><ellipse cx="25" cy="42" rx="25" ry="25" fill="#fafafa" stroke="none" pointer-events="all" style="fill: light-dark(rgb(250, 250, 250), rgb(22, 22, 22));"/><rect x="0" y="17" width="50" height="50" fill="none" stroke="none" pointer-events="all"/><path d="M 38.08 57.38 L 31.77 51.19 L 29.2 53.81 L 27.24 44.37 L 36.75 46.12 L 34.2 48.72 L 40.51 54.9 Z M 23.92 45.37 L 17.74 51.68 L 20.36 54.25 L 10.92 56.21 L 12.67 46.71 L 15.26 49.25 L 21.45 42.95 Z M 12.02 26.57 L 18.33 32.76 L 20.89 30.14 L 22.86 39.58 L 13.35 37.83 L 15.9 35.24 L 9.59 29.05 Z M 25.91 38.51 L 32.1 32.2 L 29.48 29.63 L 38.92 27.67 L 37.17 37.17 L 34.58 34.62 L 28.39 40.94 Z M 25 17 C 11.2 17 0 28.2 0 42 C 0 55.8 11.2 67 25 67 C 38.8 67 50 55.8 50 42 C 50 28.2 38.8 17 25 17 Z M 25 17.63 C 38.46 17.63 49.37 28.54 49.37 42 C 49.37 55.46 38.46 66.37 25 66.37 C 11.54 66.37 0.63 55.46 0.63 42 C 0.63 28.54 11.54 17.63 25 17.63 Z" fill="#005073" stroke="none" pointer-events="all" style="fill: light-dark(rgb(0, 80, 115), rgb(124, 193, 223));"/></g><g><g><switch><foreignObject style="overflow: visible; text-align: left;" pointer-events="none" width="100%" height="100%" requiredFeatures="http://www.w3.org/TR/SVG11/feature#Extensibility"><div xmlns="http://www.w3.org/1999/xhtml" style="display: flex; align-items: unsafe flex-end; justify-content: unsafe center; width: 1px; height: 1px; padding-top: 14px; margin-left: 25px;"><div style="box-sizing: border-box; font-size: 0; text-align: center; color: #000000; "><div style="display: inline-block; font-size: 12px; font-family: Helvetica; color: light-dark(#000000, #ffffff); line-height: 1.2; pointer-events: all; white-space: nowrap; ">R1</div></div></div></foreignObject><text x="25" y="14" fill="light-dark(#000000, #ffffff)" font-family="Helvetica" font-size="12px" text-anchor="middle">R1</text></switch></g></g></g><g data-cell-id="B-phmdFgykaJdFXzNsh_-81"><g transform="translate(0.5,0.5)"><ellipse cx="295" cy="42" rx="25" ry="25" fill="#fafafa" stroke="none" pointer-events="all" style="fill: light-dark(rgb(250, 250, 250), rgb(22, 22, 22));"/><rect x="270" y="17" width="50" height="50" fill="none" stroke="none" pointer-events="all"/><path d="M 308.08 57.38 L 301.77 51.19 L 299.2 53.81 L 297.24 44.37 L 306.75 46.12 L 304.2 48.72 L 310.51 54.9 Z M 293.92 45.37 L 287.74 51.68 L 290.36 54.25 L 280.92 56.21 L 282.67 46.71 L 285.26 49.25 L 291.45 42.95 Z M 282.02 26.57 L 288.33 32.76 L 290.89 30.14 L 292.86 39.58 L 283.35 37.83 L 285.9 35.24 L 279.59 29.05 Z M 295.91 38.51 L 302.1 32.2 L 299.48 29.63 L 308.92 27.67 L 307.17 37.17 L 304.58 34.62 L 298.39 40.94 Z M 295 17 C 281.2 17 270 28.2 270 42 C 270 55.8 281.2 67 295 67 C 308.8 67 320 55.8 320 42 C 320 28.2 308.8 17 295 17 Z M 295 17.63 C 308.46 17.63 319.37 28.54 319.37 42 C 319.37 55.46 308.46 66.37 295 66.37 C 281.54 66.37 270.63 55.46 270.63 42 C 270.63 28.54 281.54 17.63 295 17.63 Z" fill="#005073" stroke="none" pointer-events="all" style="fill: light-dark(rgb(0, 80, 115), rgb(124, 193, 223));"/></g><g><g><switch><foreignObject style="overflow: visible; text-align: left;" pointer-events="none" width="100%" height="100%" requiredFeatures="http://www.w3.org/TR/SVG11/feature#Extensibility"><div xmlns="http://www.w3.org/1999/xhtml" style="display: flex; align-items: unsafe flex-end; justify-content: unsafe center; width: 1px; height: 1px; padding-top: 14px; margin-left: 295px;"><div style="box-sizing: border-box; font-size: 0; text-align: center; color: #000000; "><div style="display: inline-block; font-size: 12px; font-family: Helvetica; color: light-dark(#000000, #ffffff); line-height: 1.2; pointer-events: all; white-space: nowrap; ">R2</div></div></div></foreignObject><text x="295" y="14" fill="light-dark(#000000, #ffffff)" font-family="Helvetica" font-size="12px" text-anchor="middle">R2</text></switch></g></g></g><g data-cell-id="B-phmdFgykaJdFXzNsh_-82"><g transform="translate(0.5,0.5)"><path d="M 155 257 L 155 187" fill="none" stroke="#000000" stroke-miterlimit="10" pointer-events="stroke" style="stroke: light-dark(rgb(0, 0, 0), rgb(255, 255, 255));"/></g></g><g data-cell-id="B-phmdFgykaJdFXzNsh_-83"><g transform="translate(0.5,0.5)"><path d="M 277.25 59.75 L 179.25 137.75" fill="none" stroke="#000000" stroke-miterlimit="10" pointer-events="stroke" style="stroke: light-dark(rgb(0, 0, 0), rgb(255, 255, 255));"/></g><g data-cell-id="B-phmdFgykaJdFXzNsh_-87"><g><g><switch><foreignObject style="overflow: visible; text-align: left;" pointer-events="none" width="100%" height="100%" requiredFeatures="http://www.w3.org/TR/SVG11/feature#Extensibility"><div xmlns="http://www.w3.org/1999/xhtml" style="display: flex; align-items: unsafe center; justify-content: unsafe center; width: 1px; height: 1px; padding-top: 71px; margin-left: 266px;"><div style="box-sizing: border-box; font-size: 0; text-align: center; color: #000000; background-color: #ffffff; "><div style="display: inline-block; font-size: 11px; font-family: Helvetica; color: light-dark(#000000, #ffffff); line-height: 1.2; pointer-events: all; background-color: light-dark(#ffffff, var(--ge-dark-color, #121212)); white-space: nowrap; ">G0/0</div></div></div></foreignObject><text x="266" y="75" fill="light-dark(#000000, #ffffff)" font-family="Helvetica" font-size="11px" text-anchor="middle">G0/0</text></switch></g></g></g><g data-cell-id="B-phmdFgykaJdFXzNsh_-89"><g><g><switch><foreignObject style="overflow: visible; text-align: left;" pointer-events="none" width="100%" height="100%" requiredFeatures="http://www.w3.org/TR/SVG11/feature#Extensibility"><div xmlns="http://www.w3.org/1999/xhtml" style="display: flex; align-items: unsafe center; justify-content: unsafe center; width: 1px; height: 1px; padding-top: 129px; margin-left: 192px;"><div style="box-sizing: border-box; font-size: 0; text-align: center; color: #000000; background-color: #ffffff; "><div style="display: inline-block; font-size: 11px; font-family: Helvetica; color: light-dark(#000000, #ffffff); line-height: 1.2; pointer-events: all; background-color: light-dark(#ffffff, var(--ge-dark-color, #121212)); white-space: nowrap; ">G0/1</div></div></div></foreignObject><text x="192" y="132" fill="light-dark(#000000, #ffffff)" font-family="Helvetica" font-size="11px" text-anchor="middle">G0/1</text></switch></g></g></g></g><g data-cell-id="B-phmdFgykaJdFXzNsh_-85"><g transform="translate(0.5,0.5)"><path d="M 42.75 59.78 L 130.75 137.75" fill="none" stroke="#000000" stroke-miterlimit="10" pointer-events="stroke" style="stroke: light-dark(rgb(0, 0, 0), rgb(255, 255, 255));"/></g><g data-cell-id="B-phmdFgykaJdFXzNsh_-86"><g><g><switch><foreignObject style="overflow: visible; text-align: left;" pointer-events="none" width="100%" height="100%" requiredFeatures="http://www.w3.org/TR/SVG11/feature#Extensibility"><div xmlns="http://www.w3.org/1999/xhtml" style="display: flex; align-items: unsafe center; justify-content: unsafe center; width: 1px; height: 1px; padding-top: 70px; margin-left: 53px;"><div style="box-sizing: border-box; font-size: 0; text-align: center; color: #000000; background-color: #ffffff; "><div style="display: inline-block; font-size: 11px; font-family: Helvetica; color: light-dark(#000000, #ffffff); line-height: 1.2; pointer-events: all; background-color: light-dark(#ffffff, var(--ge-dark-color, #121212)); white-space: nowrap; ">G0/0</div></div></div></foreignObject><text x="53" y="73" fill="light-dark(#000000, #ffffff)" font-family="Helvetica" font-size="11px" text-anchor="middle">G0/0</text></switch></g></g></g><g data-cell-id="B-phmdFgykaJdFXzNsh_-88"><g><g><switch><foreignObject style="overflow: visible; text-align: left;" pointer-events="none" width="100%" height="100%" requiredFeatures="http://www.w3.org/TR/SVG11/feature#Extensibility"><div xmlns="http://www.w3.org/1999/xhtml" style="display: flex; align-items: unsafe center; justify-content: unsafe center; width: 1px; height: 1px; padding-top: 129px; margin-left: 122px;"><div style="box-sizing: border-box; font-size: 0; text-align: center; color: #000000; background-color: #ffffff; "><div style="display: inline-block; font-size: 11px; font-family: Helvetica; color: light-dark(#000000, #ffffff); line-height: 1.2; pointer-events: all; background-color: light-dark(#ffffff, var(--ge-dark-color, #121212)); white-space: nowrap; ">G0/0</div></div></div></foreignObject><text x="122" y="132" fill="light-dark(#000000, #ffffff)" font-family="Helvetica" font-size="11px" text-anchor="middle">G0/0</text></switch></g></g></g></g></g></g></g><switch><g requiredFeatures="http://www.w3.org/TR/SVG11/feature#Extensibility"/><a transform="translate(0,-5)" xlink:href="https://www.drawio.com/doc/faq/svg-export-text-problems" target="_blank"><text text-anchor="middle" font-size="10px" x="50%" y="100%">Text is not SVG - cannot display</text></a></switch></svg>